<?xml version="1.0" standalone="no"?>
<!DOCTYPE svg PUBLIC "-//W3C//DTD SVG 20010904//EN"
 "http://www.w3.org/TR/2001/REC-SVG-20010904/DTD/svg10.dtd">
<svg version="1.0" xmlns="http://www.w3.org/2000/svg"
 width="700.000000pt" height="700.000000pt" viewBox="0 0 700.000000 700.000000"
 preserveAspectRatio="xMidYMid meet">
<metadata>
Created by potrace 1.14, written by Peter Selinger 2001-2017
</metadata>
<g transform="translate(0.000000,700.000000) scale(0.100000,-0.100000)"
fill="#000000" stroke="none">
<path d="M845 6993 c-141 -20 -330 -98 -444 -182 -75 -56 -168 -150 -224 -228
-52 -72 -121 -222 -149 -323 l-23 -85 0 -2675 0 -2675 23 -85 c95 -349 361
-616 712 -712 l85 -23 2675 0 2675 0 85 23 c214 57 411 189 542 362 64 84 141
242 170 350 l23 85 0 2675 0 2675 -23 85 c-94 346 -358 612 -707 712 l-80 23
-2655 1 c-1460 1 -2668 -1 -2685 -3z m1045 -1800 c0 -4 85 -439 190 -967 104
-529 226 -1154 271 -1391 44 -236 83 -432 85 -434 2 -2 7 -1 11 2 3 4 61 251
128 549 67 299 209 927 316 1396 l194 852 442 0 c244 0 443 -2 443 -5 0 -3 81
-362 181 -798 99 -435 241 -1062 315 -1391 74 -330 136 -602 139 -604 3 -3 7
-3 10 0 4 3 46 217 95 474 49 258 171 886 272 1396 l183 928 379 0 379 0 -6
-27 c-9 -45 -847 -3636 -853 -3655 -5 -17 -36 -18 -463 -18 l-458 0 -231 1008
c-128 554 -270 1182 -317 1396 -46 214 -87 391 -90 394 -3 3 -7 3 -10 0 -10
-9 -162 -652 -406 -1713 -127 -550 -235 -1019 -241 -1042 l-10 -43 -458 0
-458 0 -16 68 c-8 37 -193 864 -411 1837 -217 974 -397 1776 -400 1783 -3 9
80 12 395 12 220 0 400 -3 400 -7z"/>
</g>
</svg>
